<svg width="89" height="43" viewBox="0 0 89 43" fill="none" xmlns="http://www.w3.org/2000/svg">
<path d="M14.3669 35.2656C18.4037 37.9791 22.7338 39.6461 27.4529 39.9083V39.1079C22.9222 38.5617 18.5747 37.2118 14.3669 35.2656Z" fill="#FDB927"/>
<path d="M30.3234 6.39502L27.6295 29.6956L35.1583 29.2795L36.1252 17.3517L39.7861 29.0022L43.5968 28.6876L46.624 18.3921L47.8673 28.378L53.8764 27.9249L50.8374 8.47547L44.4138 8.12869L41.5818 18.8775L38.4737 7.43512L30.3234 6.39502Z" fill="#808080"/>
<path d="M54.1528 8.71826L54.3052 27.9452L64.0786 27.1656L64.0643 23.1771H59.8165L59.7819 21.1314L63.6155 21.0966V16.6237L59.8165 16.5892L59.7475 14.6821L64.0299 14.8208L63.9606 9.79314L54.1528 8.71826Z" fill="#808080"/>
<path d="M73.7485 16.4737L77.1676 14.3933C76.3702 13.1129 75.8574 11.7639 73.7138 10.718C72.44 10.0242 70.1865 9.78855 68.6373 10.7525C66.3898 11.9556 64.9694 14.5742 64.9764 16.9939C64.8234 19.4226 64.9173 21.88 66.1507 23.9286C68.2001 27.3468 71.1367 27.4499 73.973 26.4251C75.305 25.8575 77.2221 23.9879 77.271 21.3282L77.4783 17.5834L71.6073 17.4445L71.5727 21.0159L73.4031 21.0507C73.2989 21.8999 73.0165 22.4862 71.4 22.5762C70.776 22.5118 69.2324 22.2829 69.2934 20.2533L69.4315 16.8378C69.4664 16.087 70.5004 14.9098 71.8144 14.9482C72.589 14.9703 73.2919 15.3354 73.7485 16.4737Z" fill="#808080"/>
<path d="M80.8192 11.1479L77.2579 26.1488L80.7446 25.9193L81.1273 24.0514H83.5725L83.8425 25.6749L87.0039 25.4346L84.5399 11.3612L80.8192 11.1479ZM82.6051 16.1109L83.3385 20.7535L81.712 20.7214L82.6051 16.1109Z" fill="#808080"/>
<path d="M31.4954 5.61133L28.8018 28.9119L36.3303 28.4958L37.2975 16.568L40.9581 28.2183L44.7688 27.9039L47.796 17.6084L49.0393 27.5943L55.0484 27.141L52.0094 7.69153L45.5858 7.34499L42.7538 18.0938L39.6457 6.65143L31.4954 5.61133Z" fill="white"/>
<path d="M55.325 7.93506L55.4773 27.162L65.2509 26.3823L65.2366 22.3939H60.9887L60.9543 20.3482L64.7876 20.3134V15.8405L60.9887 15.8057L60.9196 13.8987L65.202 14.0375L65.133 9.00994L55.325 7.93506Z" fill="white"/>
<path d="M74.9205 15.6901L78.3396 13.6097C77.5423 12.3293 77.0295 10.9801 74.8861 9.9344C73.6121 9.24035 71.3585 9.00494 69.8093 9.96893C67.5618 11.172 66.1414 13.7906 66.1487 16.2103C65.9956 18.639 66.0894 21.0963 67.323 23.1449C69.3723 26.5632 72.3087 26.6663 75.1451 25.6415C76.4772 25.0739 78.3941 23.2043 78.4433 20.5443L78.6504 16.7998L72.7793 16.6609L72.745 20.2323L74.5754 20.2671C74.471 21.116 74.1886 21.7026 72.5723 21.7926C71.9483 21.7281 70.4044 21.4993 70.4655 19.4694L70.6038 16.0542C70.6384 15.3034 71.6724 14.1262 72.9867 14.1644C73.7611 14.1867 74.4642 14.5518 74.9205 15.6901Z" fill="white"/>
<path d="M81.9912 10.3638L78.4299 25.3649L81.9169 25.1353L82.2996 23.2674H84.7445L85.0146 24.8909L88.1762 24.6504L85.7119 10.5773L81.9912 10.3638ZM83.7771 15.3267L84.5107 19.9696L82.8843 19.9375L83.7771 15.3267Z" fill="white"/>
<path d="M32.0817 5.21875L29.3878 28.5195L36.9166 28.1034L37.8835 16.1757L41.5444 27.826L45.3551 27.5115L48.3823 17.216L49.6256 27.202L55.6347 26.7487L52.5957 7.2992L46.1721 6.95266L43.3401 17.7014L40.232 6.2591L32.0817 5.21875Z" fill="#EE1D25"/>
<path d="M55.911 7.54102L56.0634 26.7682L65.8367 25.9885L65.8224 22.0001H61.5747L61.5401 19.9542L65.3736 19.9196V15.4467L61.5747 15.4119L61.5057 13.5049L65.7881 13.6437L65.7188 8.61589L55.911 7.54102Z" fill="#EE1D25"/>
<path d="M75.5067 15.2985L78.9258 13.2181C78.1284 11.9377 77.6156 10.5885 75.472 9.54258C74.1982 8.84877 71.9447 8.61337 70.3954 9.57735C68.1479 10.7804 66.7276 13.399 66.7346 15.8187C66.5815 18.2474 66.6755 20.7045 67.9089 22.7534C69.9582 26.1716 72.8949 26.2747 75.7312 25.2499C77.0631 24.6823 78.9803 22.8127 79.0292 20.1527L79.2365 16.4079L73.3655 16.2693L73.3308 19.8407L75.1613 19.8755C75.0571 20.7245 74.7747 21.311 73.1584 21.401C72.5342 21.3366 70.9906 21.1077 71.0516 19.0779L71.1897 15.6626C71.2245 14.9119 72.2586 13.7346 73.5728 13.7728C74.3472 13.7952 75.0501 14.1602 75.5067 15.2985Z" fill="#EE1D25"/>
<path d="M82.5774 9.9707L79.0161 24.9718L82.5028 24.7422L82.8855 22.8743H85.3307L85.6007 24.4978L88.7621 24.2573L86.2981 10.1842L82.5774 9.9707ZM84.3633 14.9336L85.0967 19.5765L83.4702 19.5444L84.3633 14.9336Z" fill="#EE1D25"/>
<path d="M33.6923 15.0905C33.6923 20.6631 29.2546 25.1805 23.7806 25.1805C18.3068 25.1805 13.8691 20.6631 13.8691 15.0905C13.8691 9.5179 18.3068 5.00049 23.7806 5.00049C29.2546 5.00049 33.6923 9.5179 33.6923 15.0905Z" fill="#FDB927"/>
<path d="M33.6923 15.0905C33.6923 20.6631 29.2546 25.1805 23.7806 25.1805C18.3068 25.1805 13.8691 20.6631 13.8691 15.0905C13.8691 9.5179 18.3068 5.00049 23.7806 5.00049C29.2546 5.00049 33.6923 9.5179 33.6923 15.0905Z" fill="url(#paint0_radial_7666_291)"/>
<path d="M34.2785 14.6984C34.2785 20.271 29.8408 24.7884 24.3668 24.7884C18.8927 24.7884 14.4551 20.271 14.4551 14.6984C14.4551 9.1258 18.8927 4.6084 24.3668 4.6084C29.8408 4.6084 34.2785 9.1258 34.2785 14.6984Z" fill="url(#paint1_radial_7666_291)"/>
<path d="M22.669 15.3061L20.139 14.0321L17.5425 16.1626L18.4978 13.1919L14.7919 11.2138L18.8613 11.3412L19.7033 8.646L20.7671 11.3154L23.6758 11.3077L21.6068 12.9027L22.669 15.3061Z" fill="#214489"/>
<path d="M27.2868 10.4147L25.1005 9.59373L23.5535 11.3488L23.6315 8.76228L21.2711 7.19009L23.7521 7.00551L23.9885 5.11426L25.2766 6.99505L27.287 6.95395L26.1021 8.39531L27.2868 10.4147Z" fill="#214489"/>
<path d="M31.5503 11.256L30.1258 11.0261L29.6491 12.6334L28.8915 10.7825L27.3083 10.4213L28.736 9.54199L28.5451 7.67676L29.7017 8.98412L30.8304 8.19888L30.454 9.88002L31.5503 11.256Z" fill="#214489"/>
<path d="M31.4841 17.4061L30.5009 15.6152L29.0057 15.8125L30.0698 14.5236L29.5614 12.7167L30.7124 13.5632L31.6992 12.3872L31.6696 14.1732L33.003 14.9844L31.5466 15.2388L31.4841 17.4061Z" fill="#214489"/>
<path d="M24.2631 22.058L22.4181 20.6524L19.3209 22.9582L20.7236 19.8946L17.8938 17.7998L21.7077 17.8854L22.6485 15.3125L23.5425 17.7959L25.9453 17.862L23.8743 19.3545L24.2631 22.058Z" fill="#214489"/>
<path d="M31.2532 18.5993L29.2685 18.2578L28.9914 15.9053L27.9358 18.0718L25.9293 17.8559L27.2617 19.536L26.2987 21.7551L28.1778 20.6272L29.5076 22.0819L29.4179 19.8371L31.2532 18.5993Z" fill="#214489"/>
<path d="M20.8368 26.7523C27.0881 29.8495 33.2079 26.5461 34.9841 20.8203C31.9569 25.5794 24.6003 27.2868 20.8368 26.7523Z" fill="#FDB927"/>
<path d="M13.6961 10.7115C14.3389 8.69158 16.2761 6.09899 18.3936 5.43509C17.69 4.99882 13.9807 2.03829 8.04132 3.02392C2.6823 4.25759 3.25127 10.3829 4.0312 12.86C4.08739 11.3783 3.92971 9.36058 4.8431 8.1843C5.29459 7.67312 8.03623 6.50657 13.4105 10.4746C13.8402 10.7888 12.4848 9.74335 13.6961 10.7115Z" fill="#FDB927"/>
<path d="M12.7426 12.0722C11.1071 10.5343 9.26655 9.35196 6.99094 8.45703C4.26456 20.2719 14.7309 29.1939 21.402 33.6865C15.8514 32.6695 1.51106 23.0576 1.66753 9.60487C1.63459 8.68709 2.25587 1.9691 9.55552 1.74805C14.2526 1.84362 16.2344 2.90536 18.1549 3.80077" stroke="#FDB927" stroke-width="2.95"/>
<path d="M12.5021 12.3374L13.2314 13.0091L13.4341 12.1864L12.9429 11.7715L12.63 12.0054L12.472 12.1713L12.5021 12.3374Z" fill="#FDB927"/>
<path d="M17.9745 4.11194C18.5071 4.40546 19.0293 4.70117 19.5305 5.00151L20.6355 4.76003C19.8374 4.32643 18.8566 3.70679 18.2659 3.45898L18.0346 3.73379L17.9745 4.11194Z" fill="#FDB927"/>
<path d="M19.2816 33.4281C20.5746 33.9701 23.0795 34.5769 25.0989 34.4594C22.9914 34.0219 22.4696 34.0389 20.8679 32.8965L19.9433 33.0079L19.2816 33.4281Z" fill="#FDB927"/>
<path d="M5.64741 8.82812C4.61702 12.3271 5.38 16.3861 7.27097 20.9636C5.08547 17.2197 1.92796 13.5313 5.64741 8.82812Z" fill="#EE1D25"/>
<path d="M13.2843 6.896C11.0442 10.9667 10.5373 15.1018 12.6228 19.3335C11.4747 15.1876 11.8692 11.0418 13.2843 6.896Z" fill="#EE1D25"/>
<path d="M87.7321 28.3478L87.1481 29.9896L86.2139 29.5907C85.449 29.4083 85.3611 30.3166 85.7699 30.3881L86.6809 30.6226C87.2407 30.8035 87.4536 31.2332 87.5686 31.5138C87.8319 32.4433 87.6079 32.8292 87.4984 33.3428C87.1363 34.3246 86.452 34.7472 85.6064 34.8907C84.5451 35.049 84.009 34.8377 83.3643 34.703L84.0882 32.7332C84.2205 33.2434 84.8175 33.2585 84.976 33.2959C85.3293 33.3866 85.611 33.2431 85.7467 33.0615C85.9426 32.7205 85.7203 32.4827 85.5132 32.4049L84.4855 32.1938C83.8666 32.0282 83.6932 31.2728 83.5861 30.822C83.5176 30.2225 83.5888 29.6897 83.8957 29.1756C84.1372 28.717 84.4203 28.4103 84.8466 28.0852C85.2383 27.8238 85.9344 27.7197 86.4707 27.8084C87.3368 27.9884 87.3836 28.1681 87.7321 28.3478Z" fill="#808080"/>
<path d="M27.9532 30.957L26.3313 42.8537L31.521 42.1691L31.6477 36.0233L34.3058 41.7228L37.0065 41.3792L38.8936 35.3458L39.8416 40.9991L43.8011 40.405L41.5926 30.4639L37.0014 30.5317L35.3829 36.6566L33.3146 30.7309L27.9532 30.957Z" fill="#808080"/>
<path d="M44.838 30.2935L48.9419 29.9966L49.0809 39.6581L45.227 40.2133L44.838 30.2935Z" fill="#808080"/>
<path d="M50.5823 29.8779L54.3233 29.6748L54.3618 36.0212L57.2502 35.7299L57.2391 38.5812L50.631 39.5219L50.5823 29.8779Z" fill="#808080"/>
<path d="M64.6661 29.182L67.5112 28.9585L67.5429 37.1833L64.6661 37.6336V29.182Z" fill="#808080"/>
<path d="M75.7259 34.1972C74.7055 36.2957 72.3494 37.31 70.4635 36.4627C68.5777 35.6157 67.876 33.2279 68.8964 31.1294C69.9169 29.031 72.2731 28.0169 74.159 28.8639C76.0449 29.7112 76.7464 32.099 75.7259 34.1972Z" fill="#808080"/>
<path d="M58.111 29.5581L61.2852 29.3687L61.3179 35.2929L63.7689 35.021L63.7594 37.6824L58.1524 38.5608L58.111 29.5581Z" fill="#808080"/>
<path d="M76.9264 28.3655L76.869 35.9473L78.9118 35.6708L78.9806 31.7069L80.6563 35.3712L82.8139 35.2328L82.9745 28.0659L80.9317 28.1812L81.0121 32.237L79.1185 28.2388L76.9264 28.3655Z" fill="#808080"/>
<path d="M88.5096 27.6105L87.9256 29.252L86.9911 28.8534C86.2265 28.6711 86.1385 29.5793 86.5474 29.6508L87.4584 29.8853C88.0181 30.0662 88.231 30.4959 88.3461 30.7763C88.6091 31.7058 88.3853 32.0919 88.2759 32.6056C87.9137 33.5871 87.2292 34.0097 86.3839 34.1534C85.3223 34.3115 84.7865 34.1004 84.1417 33.9657L84.8657 31.9959C84.998 32.5061 85.595 32.5209 85.7534 32.5586C86.1068 32.6493 86.3885 32.5058 86.5242 32.3242C86.7201 31.983 86.4978 31.7454 86.2904 31.6676L85.2627 31.4565C84.6441 31.2909 84.4706 30.5356 84.3636 30.0847C84.2948 29.485 84.366 28.9524 84.6731 28.4381C84.9146 27.9797 85.1975 27.673 85.6241 27.3476C86.0157 27.0865 86.7116 26.9824 87.2481 27.0711C88.1141 27.2508 88.1608 27.4308 88.5096 27.6105Z" fill="white"/>
<path d="M28.6883 30.2615L27.0662 42.1581L32.2559 41.4735L32.3825 35.3278L35.0409 41.0271L37.7413 40.6837L39.6287 34.65L40.5765 40.3033L44.5359 39.7095L42.3274 29.7681L37.7362 29.8359L36.1177 35.961L34.0495 30.0353L28.6883 30.2615Z" fill="white"/>
<path d="M45.5303 29.5989L49.6344 29.3018L49.7731 38.9635L45.9195 39.5187L45.5303 29.5989Z" fill="white"/>
<path d="M51.2749 29.0112L55.0157 28.8081L55.0544 35.1545L57.9426 34.8634L57.9315 37.7145L51.3236 38.6554L51.2749 29.0112Z" fill="white"/>
<path d="M65.4894 28.3558L68.3342 28.1323L68.3661 36.3569L65.4894 36.8072V28.3558Z" fill="white"/>
<path d="M76.5492 33.3716C75.5288 35.4698 73.1725 36.4842 71.2866 35.6371C69.4007 34.7899 68.6993 32.4021 69.7197 30.3036C70.7402 28.2054 73.0962 27.1911 74.9821 28.0384C76.868 28.8854 77.5697 31.2732 76.5492 33.3716Z" fill="white"/>
<path d="M58.9309 28.7344L62.1054 28.5449L62.1381 34.4694L64.5888 34.1975L64.5794 36.8589L58.9723 37.7373L58.9309 28.7344Z" fill="white"/>
<path d="M77.7466 27.6268L77.6892 35.2083L79.7318 34.9318L79.8008 30.9681L81.4762 34.6322L83.6339 34.494L83.7945 27.3271L81.7516 27.4424L81.832 31.4983L79.9384 27.5001L77.7466 27.6268Z" fill="white"/>
<path d="M88.8637 27.299L88.2797 28.9407L87.3455 28.5419C86.5806 28.3598 86.4927 29.2678 86.9018 29.3393L87.8127 29.5737C88.3725 29.7549 88.5852 30.1846 88.7002 30.465C88.9635 31.3945 88.7395 31.7804 88.6302 32.2942C88.2681 33.2757 87.5836 33.6984 86.7383 33.8419C85.6766 34.0002 85.1409 33.7889 84.4958 33.6544L85.2201 31.6843C85.3523 32.1945 85.9491 32.2096 86.1075 32.2473C86.4612 32.3378 86.7426 32.1943 86.8783 32.0126C87.0742 31.6717 86.8521 31.4339 86.6448 31.356L85.6171 31.145C84.9982 30.9796 84.8248 30.224 84.7177 29.7731C84.6492 29.1737 84.7204 28.6411 85.0275 28.1268C85.2688 27.6681 85.5519 27.3615 85.9782 27.0363C86.3699 26.7749 87.066 26.6708 87.6025 26.7596C88.4684 26.9396 88.5152 27.1193 88.8637 27.299Z" fill="#33337A"/>
<path d="M29.0852 29.9089L27.4631 41.8053L32.6528 41.121L32.7795 34.975L35.4378 40.6745L38.1383 40.3312L40.0256 34.2975L40.9734 39.9508L44.9329 39.3567L42.7244 29.4155L38.1332 29.4834L36.5147 35.6082L34.4464 29.6828L29.0852 29.9089Z" fill="#33337A"/>
<path d="M45.9697 29.3301L50.0738 29.0332L50.2126 38.6949L46.3587 39.2499L45.9697 29.3301Z" fill="#33337A"/>
<path d="M51.714 28.8285L55.455 28.6255L55.4935 34.9719L58.3819 34.6806L58.3708 37.5319L51.7627 38.4728L51.714 28.8285Z" fill="#33337A"/>
<path d="M65.7981 28.1327L68.6429 27.9092L68.6747 36.1339L65.7981 36.5843V28.1327Z" fill="#33337A"/>
<path d="M76.8577 33.1491C75.8372 35.2473 73.4812 36.2616 71.5953 35.4144C69.7094 34.5674 69.0077 32.1795 70.0281 30.0811C71.0488 27.9829 73.4049 26.9685 75.2908 27.8156C77.1767 28.6628 77.8781 31.0507 76.8577 33.1491Z" fill="#33337A"/>
<path d="M59.2426 28.4663L62.417 28.2769L62.4497 34.2011L64.9005 33.9295L64.9336 36.6337L59.284 37.4693L59.2426 28.4663Z" fill="#33337A"/>
<path d="M78.058 27.3167L78.0009 34.8985L80.0435 34.622L80.1125 30.6583L81.7879 34.3224L83.9455 34.184L84.1061 27.0171L82.0633 27.1324L82.1437 31.1882L80.2501 27.19L78.058 27.3167Z" fill="#33337A"/>
<path d="M73.752 28.6748L73.144 30.6001L70.5249 30.835L72.6295 32.1027L72.0683 34.4507L73.8455 32.8542L75.4826 33.6054L74.8746 31.8681L76.3245 30.4593L74.5472 30.5532L73.752 28.6748Z" fill="white"/>
<defs>
<radialGradient id="paint0_radial_7666_291" cx="0" cy="0" r="1" gradientUnits="userSpaceOnUse" gradientTransform="translate(19.7896 11.8561) rotate(71.5918) scale(10.5672 11.3086)">
<stop stop-color="#FFF6D5"/>
<stop offset="1" stop-color="#FFF6D5" stop-opacity="0"/>
</radialGradient>
<radialGradient id="paint1_radial_7666_291" cx="0" cy="0" r="1" gradientUnits="userSpaceOnUse" gradientTransform="translate(20.5335 11.8898) rotate(75.0572) scale(4.27653 5.12506)">
<stop stop-color="#FFF6D5"/>
<stop offset="1" stop-color="#FFF6D5" stop-opacity="0"/>
</radialGradient>
</defs>
</svg>
