<svg width="10" height="8" viewBox="0 0 10 8" fill="none" xmlns="http://www.w3.org/2000/svg">
<path d="M8.39807 2.50143C8.39807 2.57727 8.39807 2.6531 8.39807 2.7181C8.39807 4.9606 6.6864 7.54977 3.5664 7.54977C2.60223 7.54977 1.7139 7.2681 0.955566 6.79143C1.08557 6.80227 1.2264 6.8131 1.3564 6.8131C2.14723 6.8131 2.8839 6.54227 3.4689 6.08727C2.7214 6.07643 2.09307 5.5781 1.88723 4.90643C1.99557 4.9281 2.09307 4.93893 2.21223 4.93893C2.3639 4.93893 2.51557 4.91727 2.6564 4.87393C1.8764 4.72227 1.2914 4.03977 1.2914 3.21643C1.2914 3.2056 1.2914 3.2056 1.2914 3.19477C1.5189 3.32477 1.7789 3.4006 2.06057 3.41143C1.60557 3.1081 1.30223 2.5881 1.30223 1.99227C1.30223 1.6781 1.3889 1.3856 1.52973 1.13643C2.3639 2.1656 3.62057 2.83727 5.0289 2.9131C4.9964 2.79393 4.98557 2.6531 4.98557 2.5231C4.98557 1.5806 5.7439 0.822266 6.6864 0.822266C7.1739 0.822266 7.61806 1.0281 7.9214 1.3531C8.3114 1.27727 8.6689 1.13643 9.00473 0.941432C8.87473 1.34227 8.6039 1.66727 8.25723 1.88393C8.6039 1.8406 8.9289 1.75393 9.23223 1.6131C9.01556 1.95977 8.7339 2.2631 8.39807 2.50143Z" fill="#FAFBFC"/>
</svg>
