<svg width="10" height="10" viewBox="0 0 10 10" fill="none" xmlns="http://www.w3.org/2000/svg">
<path d="M7.16673 5.95315C7.03673 5.90982 6.4734 5.60649 6.3434 5.56315C6.2134 5.51982 6.17006 5.51982 6.0834 5.60649C5.96416 5.77388 5.83387 5.93313 5.6934 6.08315C5.60673 6.16982 5.5634 6.16982 5.4334 6.12649C5.07113 6.00454 4.74396 5.79634 4.48006 5.51982C4.2114 5.29075 3.99053 5.01097 3.83006 4.69649C3.7434 4.56649 3.83006 4.52315 3.8734 4.43649C3.94148 4.37315 3.99988 4.30014 4.04673 4.21982C4.09006 4.13315 4.1334 4.08982 4.17673 4.00315C4.22006 3.91649 4.17673 3.87315 4.17673 3.78649C4.17673 3.69982 3.91673 3.13649 3.78673 2.91982C3.65673 2.70315 3.6134 2.70315 3.52673 2.70315H3.31006C3.19652 2.70822 3.0887 2.75442 3.00673 2.83315C2.86427 2.95606 2.75133 3.10948 2.67631 3.28203C2.60129 3.45458 2.56612 3.64181 2.5734 3.82982C2.61311 4.27281 2.77848 4.69526 3.05006 5.04749C3.54231 5.82736 4.25171 6.44639 5.09106 6.82849C5.3944 6.95849 5.61106 7.00182 5.7844 7.08849C6.02237 7.16481 6.27578 7.17972 6.52106 7.13182C6.85176 7.04353 7.1423 6.84474 7.3444 6.56849C7.39916 6.38561 7.42833 6.19603 7.43106 6.00515C7.34254 6.00591 7.25456 5.99124 7.17106 5.96182L7.16673 5.95315ZM5.00006 8.89982C4.28019 8.90847 3.57258 8.71316 2.95906 8.33649L2.82906 8.24982L1.30806 8.63982L1.7024 7.16649L1.61573 7.03649C1.21961 6.39747 1.00952 5.66065 1.00906 4.90882C1.00821 4.11825 1.24191 3.34519 1.68059 2.6875C2.11928 2.02981 2.74322 1.51705 3.47345 1.21411C4.20367 0.911176 5.00736 0.83169 5.78278 0.985713C6.5582 1.13974 7.2705 1.52034 7.82952 2.07936C8.38854 2.63838 8.76915 3.35068 8.92317 4.1261C9.07719 4.90152 8.99771 5.70521 8.69477 6.43544C8.39184 7.16567 7.87907 7.78961 7.22138 8.22829C6.56369 8.66697 5.79063 8.90068 5.00006 8.89982ZM8.3844 1.56782C7.4745 0.69076 6.26377 0.194684 5.00006 0.181152C3.73586 0.181152 2.52344 0.683353 1.62952 1.57728C0.735597 2.4712 0.233396 3.68362 0.233396 4.94782C0.233185 5.78744 0.457611 6.61183 0.883396 7.33549L0.181396 9.81849L2.7424 9.16849C3.44761 9.55253 4.24053 9.74665 5.0434 9.73182C5.66936 9.73182 6.2892 9.60853 6.86752 9.36898C7.44584 9.12943 7.97131 8.77832 8.41394 8.3357C8.85656 7.89307 9.20767 7.3676 9.44722 6.78928C9.68677 6.21096 9.81006 5.59112 9.81006 4.96515C9.77937 3.69577 9.26651 2.48569 8.37573 1.58082" fill="#FAFBFC"/>
</svg>
